<?xml version="1.0" encoding="utf-8"?>
<!-- Generator: Adobe Illustrator 22.1.0, SVG Export Plug-In . SVG Version: 6.00 Build 0)  -->
<svg version="1.1" id="Camada_1" xmlns="http://www.w3.org/2000/svg" xmlns:xlink="http://www.w3.org/1999/xlink" x="0px" y="0px"
	 viewBox="0 0 369 284" style="enable-background:new 0 0 369 284;" xml:space="preserve">
<style type="text/css">
	.st0{fill:#DADADA;}
	.st1{fill:#FFFFFF;}
	.st2{fill:none;}
</style>
<path class="st0" d="M239.6,257.7L186.6,65c-0.7-2.5-2-4.1-3.5-4.1c-1.4,0-2.8,1.6-3.5,4.1l-53,192.7c-0.7,2.4-0.6,5.4,0.1,7.8
	s2,3.9,3.4,3.9h106c1.4,0,2.7-1.5,3.4-3.9S240.3,260.1,239.6,257.7z M130.3,260.5c17.5-63.5,35-126.9,52.5-190.4
	c17.3,63.7,34.7,127.4,52,191C200,260.9,165.2,260.7,130.3,260.5z"/>
<path class="st1" d="M298.7,254L163.3,5.3C161.5,2,158.1,0,154.5,0c-3.7,0-7.1,2-8.8,5.3L10.2,254c-1.7,3.2-1.7,7,0.2,10.1
	c1.8,3.1,5.1,5,8.7,5h270.8c3.6,0,6.9-1.9,8.7-5C300.4,261,300.4,257.2,298.7,254z M19.5,257.6c44.7-81.9,89.4-163.9,134.1-245.8
	c44.3,82.2,88.7,164.4,133,246.6C197.6,258.2,108.6,257.9,19.5,257.6z"/>
<path d="M266,78"/>
<path class="st1" d="M358.3,254.3L222.9,5.5c-1.8-3.3-5.2-5.3-8.8-5.3c-3.7,0-7.1,2-8.8,5.3L69.9,254.3c-1.7,3.2-1.7,7,0.2,10.1
	c1.8,3.1,5.1,5,8.7,5h270.8c3.6,0,6.9-1.9,8.7-5C360,261.3,360,257.5,358.3,254.3z M79.1,257.9C123.8,176,168.5,94,213.2,12.1
	c44.3,82.2,88.7,164.4,133,246.6C257.2,258.4,168.2,258.2,79.1,257.9z"/>
<line class="st2" x1="130.6" y1="260" x2="187.1" y2="71.9"/>
</svg>
