<?xml version="1.0" encoding="utf-8"?>
<!-- Generator: Adobe Illustrator 22.1.0, SVG Export Plug-In . SVG Version: 6.00 Build 0)  -->
<svg version="1.1" id="Camada_1" xmlns="http://www.w3.org/2000/svg" xmlns:xlink="http://www.w3.org/1999/xlink" x="0px" y="0px"
	 viewBox="0 0 369 360" style="enable-background:new 0 0 369 360;" xml:space="preserve">
<style type="text/css">
	.st0{fill:#DADADA;}
	.st1{fill:#666666;}
	.st2{fill:none;}
</style>
<path class="st0" d="M239.6,266.7L186.6,74c-0.7-2.5-2-4.1-3.5-4.1c-1.4,0-2.8,1.6-3.5,4.1l-53,192.7c-0.7,2.4-0.6,5.4,0.1,7.8
	c0.7,2.4,2,3.9,3.4,3.9h106c1.4,0,2.7-1.5,3.4-3.9C240.2,272.1,240.3,269.1,239.6,266.7z M130.3,269.5
	c17.5-63.5,35-126.9,52.5-190.4c17.3,63.7,34.7,127.4,52,191C200,269.9,165.2,269.7,130.3,269.5z"/>
<path d="M298.7,263L163.3,14.3c-1.8-3.3-5.2-5.3-8.8-5.3c-3.7,0-7.1,2-8.8,5.3L10.2,263c-1.7,3.2-1.7,7,0.2,10.1
	c1.8,3.1,5.1,5,8.7,5h270.8c3.6,0,6.9-1.9,8.7-5C300.4,270,300.4,266.2,298.7,263z M19.5,266.6c44.7-81.9,89.4-163.9,134.1-245.8
	c44.3,82.2,88.7,164.4,133,246.6C197.6,267.2,108.6,266.9,19.5,266.6z"/>
<path d="M266,87"/>
<path class="st1" d="M358.3,263.3L222.9,14.5c-1.8-3.3-5.2-5.3-8.8-5.3c-3.7,0-7.1,2-8.8,5.3L69.9,263.3c-1.7,3.2-1.7,7,0.2,10.1
	c1.8,3.1,5.1,5,8.7,5h270.8c3.6,0,6.9-1.9,8.7-5C360,270.3,360,266.5,358.3,263.3z M79.1,266.9c44.7-81.9,89.4-163.9,134.1-245.8
	c44.3,82.2,88.7,164.4,133,246.6C257.2,267.4,168.2,267.2,79.1,266.9z"/>
<line class="st2" x1="130.6" y1="269" x2="187.1" y2="80.9"/>
<path class="st2" d="M184.3,297"/>
<g>
	<path d="M59.8,351h-2.4v-44.5H45.1v-2.3h27v2.3H59.8V351z"/>
	<path d="M90.3,303.6l14.2,47.4h-2.6L98,338.3H78.9L75.2,351h-2.6l14.2-47.4H90.3z M79.5,336.1h17.8L88.5,306L79.5,336.1z M93.5,294
		l-3.7,6.6h-2.5l3.7-6.6H93.5z"/>
	<path d="M121.7,351h-2.4v-14.1l-14.1-32.7h2.6l12.7,29.7l12.7-29.7h2.6l-14.1,32.7V351z"/>
	<path d="M153.8,351h-11.7v-46.8h11.7c10.5,0,17.5,6,17.5,22.2v2.4C171.3,345,164.3,351,153.8,351z M153.5,348.7
		c9.3,0,15.3-5.2,15.3-19.9v-2.4c0-14.7-6-19.9-15.3-19.9h-9v42.2H153.5z"/>
	<path d="M179.6,336.6v-32.4h2.4v32.1c0,10.3,4.2,13,12,13s12-2.8,12-13v-32.1h2.4v32.4c0,11.6-5.4,15-14.4,15
		S179.6,348.2,179.6,336.6z"/>
	<path d="M232.4,351H230v-46.8h2.4V351z"/>
	<path d="M271.7,351H269l-24.6-43.2l0.2,11.4V351h-2.3v-46.8h2.7l24.6,43.2l-0.2-11.4v-31.8h2.3V351z"/>
	<path d="M295.5,349.3h0.4c7.9,0,11.2-4.6,11.2-13.3h2.5v0.6c0,9.3-4.4,15-14,15c-10.2,0-15.3-6.6-15.3-22.8v-2.4
		c0-16.2,5.1-22.8,15.3-22.8c9.6,0,14,5.7,14,15.9v1.5h-2.5c0-10.8-3.5-15.1-11.2-15.1h-0.4c-8.3,0-12.7,5.8-12.7,20.5v2.4
		C282.8,343.5,287.1,349.3,295.5,349.3z"/>
	<path d="M320.7,351h-3.6v-3.6h3.6V351z"/>
</g>
</svg>
