<?xml version="1.0" encoding="utf-8"?>
<!-- Generator: Adobe Illustrator 22.1.0, SVG Export Plug-In . SVG Version: 6.00 Build 0)  -->
<svg version="1.1" id="Layer_1" xmlns="http://www.w3.org/2000/svg" xmlns:xlink="http://www.w3.org/1999/xlink" x="0px" y="0px"
	 viewBox="0 0 512 512" style="enable-background:new 0 0 512 512;" xml:space="preserve">
<style type="text/css">
	.st0{fill:#093A6A;}
</style>
<g>
	<path d="M432.6,214.5H430v-67.8c0-39.3-15.4-76.2-43.3-104C359,15.1,322.3,0,283.3,0c-0.3,0-0.6,0-0.9,0
		c-80.4,0.5-145.8,66.9-145.8,148.2v36.3c0,4.4,3.5,7.9,7.9,7.9h42.1c4.4,0,7.9-3.5,7.9-7.9v-36.6c0-49.2,39.5-89.6,88-90.1
		c23.9-0.2,46.4,8.9,63.4,25.7c17,16.8,26.4,39.2,26.4,63.1v67.8H134c-21.7,0-39.4,17.7-39.4,39.4v250.2c0,4.4,3.5,7.9,7.9,7.9
		h361.7c4.4,0,7.9-3.5,7.9-7.9V253.9C472,232.2,454.4,214.5,432.6,214.5z M356.9,72.4c-20-19.8-46.5-30.6-74.6-30.3
		c-57.1,0.6-103.6,48-103.6,105.8v28.7h-26.3v-28.4c0-72.6,58.4-132,130.1-132.4c0.3,0,0.5,0,0.8,0c34.8,0,67.5,13.5,92.2,38.1
		c24.9,24.8,38.7,57.7,38.7,92.8v67.8h-26.3v-67.8C387.9,118.6,376.9,92.2,356.9,72.4z M456.3,496.2H110.4V253.9
		c0-13,10.6-23.7,23.7-23.7h246h42h10.5c13,0,23.7,10.6,23.7,23.7V496.2z"/>
</g>
<g>
	<g>
		<path class="st0" d="M297.6,350.3c23-6.3,39.9-27.3,39.9-52.2c0-29.9-24.3-54.1-54.1-54.1s-54.1,24.3-54.1,54.1
			c0,24.9,16.9,46,39.9,52.2c-39.3,6.8-69.3,41.1-69.3,82.3v42.1c0,4.4,3.5,7.9,7.9,7.9H359c4.4,0,7.9-3.5,7.9-7.9v-42.1
			C366.9,391.4,336.9,357.1,297.6,350.3z M245,298.1c0-21.2,17.2-38.4,38.4-38.4s38.4,17.2,38.4,38.4s-17.2,38.4-38.4,38.4
			S245,319.2,245,298.1z M351.1,466.8H215.5v-34.2c0-37.4,30.4-67.8,67.8-67.8s67.8,30.4,67.8,67.8V466.8z"/>
	</g>
</g>
<g>
	<g>
		<path class="st0" d="M422.1,269.1c-4.4,0-7.9,3.5-7.9,7.9v105.1c0,4.4,3.5,7.9,7.9,7.9s7.9-3.5,7.9-7.9V277
			C430,272.7,426.5,269.1,422.1,269.1z"/>
	</g>
</g>
<g>
	<g>
		<path class="st0" d="M422.1,403.7c-4.4,0-7.9,3.5-7.9,7.9v42.1c0,4.4,3.5,7.9,7.9,7.9s7.9-3.5,7.9-7.9v-42.1
			C430,407.2,426.5,403.7,422.1,403.7z"/>
	</g>
</g>
<g>
	<g>
		<path class="st0" d="M80.5,175.3H47.8c-4.4,0-7.9,3.5-7.9,7.9s3.5,7.9,7.9,7.9h32.7c4.4,0,7.9-3.5,7.9-7.9S84.9,175.3,80.5,175.3z
			"/>
	</g>
</g>
<g>
	<g>
		<path class="st0" d="M95.3,150.9L74.4,130c-3.1-3.1-8.1-3.1-11.2,0c-3.1,3.1-3.1,8.1,0,11.2L84.1,162c1.5,1.5,3.6,2.3,5.6,2.3
			s4-0.8,5.6-2.3C98.3,158.9,98.3,153.9,95.3,150.9z"/>
	</g>
</g>
<g>
	<g>
		<path class="st0" d="M95,204.4c-3.1-3.1-8.1-3.1-11.2,0l-20.8,20.8c-3.1,3.1-3.1,8.1,0,11.1c1.5,1.5,3.6,2.3,5.6,2.3
			s4-0.8,5.6-2.3L95,215.5C98.1,212.4,98.1,207.5,95,204.4z"/>
	</g>
</g>
</svg>
