<?xml version="1.0" encoding="utf-8"?>
<!-- Generator: Adobe Illustrator 22.1.0, SVG Export Plug-In . SVG Version: 6.00 Build 0)  -->
<svg version="1.1" id="Capa_1" xmlns="http://www.w3.org/2000/svg" xmlns:xlink="http://www.w3.org/1999/xlink" x="0px" y="0px"
	 viewBox="0 0 527 524" style="enable-background:new 0 0 527 524;" xml:space="preserve">
<style type="text/css">
	.st0{fill:#093A6A;}
</style>
<path class="st0" d="M121.7,34.7c-4.8-4.1-11.8-4-16.5,0.1L70.9,65.6v-4c0-4.7-3.8-8.5-8.5-8.5s-8.5,3.8-8.5,8.5v19.3L39.6,93.6
	c-3.5,3.2-3.7,8.5-0.6,12s8.5,3.8,12,0.7l62.6-56l62.6,56c2.3,2.1,5.5,2.8,8.4,1.8c2.9-0.9,5.1-3.4,5.7-6.4c0.6-3-0.4-6.1-2.7-8.1
	L121.7,34.7z"/>
<path class="st0" d="M164.7,117c-4.7,0-8.5,3.8-8.5,8.5v59.7H70.9v-59.7c0-4.7-3.8-8.5-8.5-8.5s-8.5,3.8-8.5,8.5v65.2
	c0.1,6.5,5.4,11.7,11.9,11.6h95.6c6.5,0.1,11.9-5.2,11.9-11.7v-65.1C173.3,120.9,169.4,117,164.7,117z"/>
<path class="st0" d="M467.9,159.7v-29.2c0-7.4-6-13.5-13.5-13.5h-24.3c-7.4,0-13.5,6-13.5,13.5v29.2h-17.1v-53.5
	c0-8.1-6.6-14.8-14.8-14.8h-21.7c-8.1,0-14.8,6.6-14.8,14.8v53.5h-17.1V65.8c0-9.4-7.6-17.1-17.1-17.1h-17.1
	c-9.4,0-17.1,7.6-17.1,17.1v93.9h-8.5c-4.7,0-8.5-3.8-8.5-8.5V48.7c0-4.7-3.8-8.5-8.5-8.5c-4.7,0-8.5,3.8-8.5,8.5v102.4
	c0,14.1,11.5,25.6,25.6,25.6h196.3c4.7,0,8.5-3.8,8.5-8.5S472.6,159.7,467.9,159.7z M314.3,159.7h-17.1V65.8h17.1V159.7z
	 M382.5,159.7h-17.1v-51.2h17.1V159.7z M450.8,159.7h-17.1v-25.6h17.1L450.8,159.7L450.8,159.7z"/>
<path class="st0" d="M412.4,330.3H216.1c-4.7,0-8.5-3.8-8.5-8.5v-13.5l28.1-28.1c3.4-3.2,8.7-3.2,12.1,0l10,10c10,10,26.2,10,36.2,0
	l35.6-35.6c3.4-3.2,8.7-3.2,12.1,0l10,10c10,10,26.2,10,36.2,0l30.6-30.6c3.2-3.3,3.2-8.7-0.1-12c-3.3-3.3-8.6-3.3-12-0.1
	l-30.6,30.6c-3.3,3.3-8.7,3.3-12.1,0l-10-10c-10.1-9.7-26.1-9.7-36.2,0l-35.6,35.6c-3.3,3.3-8.7,3.3-12.1,0l-10-10
	c-10.1-9.7-26.1-9.7-36.2,0l-16,16v-64.7c0-4.7-3.8-8.5-8.5-8.5s-8.5,3.8-8.5,8.5v102.4c0,14.1,11.5,25.6,25.6,25.6h196.3
	c4.7,0,8.5-3.8,8.5-8.5C420.9,334.1,417.1,330.3,412.4,330.3z"/>
<path d="M519.1,402.5V53.4c1.2-24.8-17.9-45.9-42.7-47.3H49.7C24.9,7.4,5.9,28.6,7.1,53.4v349.1c-1.2,24.8,17.9,45.9,42.7,47.3
	h136.5v17.1h-34.1c-18.9,0-34.1,15.3-34.1,34.1v8.5c0,4.7,3.8,8.5,8.5,8.5h273.1c4.7,0,8.5-3.8,8.5-8.5V501
	c0-18.9-15.3-34.1-34.1-34.1h-34.1v-17.1h136.5C501.2,448.4,520.2,427.3,519.1,402.5z M374,483.9c9.4,0,17.1,7.6,17.1,17.1h-256
	c0-9.4,7.6-17.1,17.1-17.1H374z M203.3,466.9v-17.1h119.5v17.1H203.3z M476.4,432.7H49.7c-15.4-1.4-26.8-14.9-25.6-30.3v-20.9H502
	v20.9C503.1,417.8,491.7,431.3,476.4,432.7z M502,53.4v311.1H24.1V53.4C23,38,34.4,24.5,49.7,23.1h426.7
	C491.7,24.5,503.1,38,502,53.4z"/>
</svg>
